<?xml version="1.0" standalone="no"?>
<!DOCTYPE svg PUBLIC "-//W3C//DTD SVG 20010904//EN"
 "http://www.w3.org/TR/2001/REC-SVG-20010904/DTD/svg10.dtd">
<svg version="1.0" xmlns="http://www.w3.org/2000/svg"
 width="2998.000000pt" height="2998.000000pt" viewBox="0 0 2998.000000 2998.000000"
 preserveAspectRatio="xMidYMid meet">
<metadata>
Created by potrace 1.11, written by Peter Selinger 2001-2013
</metadata>
<g transform="translate(0.000000,2998.000000) scale(0.100000,-0.100000)"
fill="#000000" stroke="none">
<path d="M14518 29975 c-2 -2 -82 -6 -178 -10 -96 -4 -193 -8 -215 -10 -22 -1
-92 -6 -156 -9 -63 -4 -133 -9 -155 -11 -41 -4 -146 -14 -224 -20 -25 -2 -70
-6 -100 -10 -30 -3 -73 -8 -95 -10 -22 -3 -65 -7 -95 -10 -58 -5 -115 -13
-165 -21 -16 -3 -48 -7 -70 -9 -35 -3 -84 -9 -150 -19 -22 -3 -21 0 -98 -321
-71 -293 -125 -515 -167 -690 -21 -88 -55 -225 -74 -305 -19 -80 -53 -219 -75
-310 -22 -91 -72 -298 -111 -460 -117 -486 -193 -798 -259 -1070 -22 -91 -72
-298 -111 -460 -39 -162 -87 -359 -106 -437 -18 -79 -50 -209 -70 -290 -19
-82 -53 -220 -74 -308 -21 -88 -52 -216 -69 -285 -16 -69 -53 -219 -81 -335
-28 -115 -65 -266 -81 -335 -17 -69 -48 -197 -69 -285 -21 -88 -55 -226 -74
-307 -20 -82 -52 -212 -70 -290 -19 -79 -67 -276 -106 -438 -87 -362 -128
-531 -186 -770 -25 -102 -54 -221 -64 -265 -11 -44 -22 -90 -26 -102 l-6 -23
6160 0 c5859 0 6161 1 6166 18 2 9 16 64 30 122 23 97 42 173 155 640 22 91
58 242 81 335 23 94 57 234 76 313 43 181 94 391 140 580 48 200 85 353 155
642 32 135 79 328 104 430 24 102 70 289 100 415 31 127 70 286 86 355 33 138
66 272 140 580 28 113 61 252 75 310 14 58 27 112 30 121 3 10 -17 32 -58 65
-35 27 -68 53 -74 59 -6 5 -25 21 -43 35 -18 14 -40 32 -51 40 -10 8 -28 22
-40 30 -12 8 -28 20 -34 26 -28 26 -268 204 -276 204 -4 0 -10 3 -12 8 -5 12
-86 72 -97 72 -5 0 -11 3 -13 8 -1 4 -46 37 -98 74 -52 37 -99 71 -105 75 -5
5 -50 35 -100 68 -49 32 -91 63 -93 67 -2 4 -8 8 -14 8 -6 0 -27 13 -47 28
-20 16 -43 32 -51 35 -8 4 -62 38 -120 77 -58 39 -113 73 -122 77 -10 3 -18 9
-18 14 0 5 -4 9 -10 9 -5 0 -40 19 -77 43 -116 75 -324 197 -334 197 -5 0 -9
3 -9 8 0 4 -10 12 -23 18 -33 15 -111 58 -117 64 -3 3 -21 14 -40 24 -19 11
-53 29 -75 41 -110 61 -158 87 -245 135 -130 71 -736 370 -750 370 -6 0 -22 7
-35 16 -42 28 -554 247 -770 330 -49 19 -99 39 -110 44 -25 11 -248 93 -410
150 -66 23 -127 45 -135 48 -8 3 -17 6 -20 7 -3 0 -104 33 -225 72 -213 70
-391 124 -539 164 -39 11 -96 27 -126 35 -79 22 -350 92 -380 98 -14 3 -72 17
-130 31 -58 14 -118 27 -135 30 -16 3 -46 10 -65 15 -19 5 -46 11 -60 14 -14
2 -45 9 -70 15 -25 5 -61 13 -80 16 -19 3 -42 8 -50 10 -8 2 -28 7 -45 10 -50
8 -85 15 -190 35 -55 11 -117 22 -139 25 -21 3 -41 7 -45 9 -3 2 -31 7 -61 11
-30 4 -65 9 -77 11 -47 8 -69 12 -118 19 -27 3 -61 8 -75 11 -23 4 -196 28
-285 40 -22 3 -51 7 -65 9 -14 2 -54 7 -90 10 -36 4 -72 8 -80 10 -8 1 -46 6
-85 9 -38 4 -81 9 -95 11 -14 2 -64 7 -112 10 -47 3 -94 7 -105 9 -15 3 -94
10 -263 21 -19 2 -91 6 -160 10 -69 4 -152 9 -185 11 -72 5 -1152 13 -1157 9z"/>
<path d="M12029 29686 c-2 -2 -20 -7 -39 -10 -19 -3 -46 -8 -60 -11 -14 -4
-38 -9 -55 -12 -16 -2 -77 -16 -135 -29 -123 -29 -138 -32 -165 -38 -28 -6
-117 -27 -135 -32 -13 -3 -128 -32 -155 -38 -26 -7 -80 -21 -195 -53 -69 -19
-134 -36 -145 -38 -56 -13 -489 -146 -696 -215 -266 -89 -657 -231 -784 -286
-16 -7 -42 -16 -57 -19 -16 -4 -28 -10 -28 -14 0 -4 -22 -14 -50 -21 -27 -7
-50 -18 -50 -22 0 -5 -4 -7 -9 -4 -4 3 -17 -1 -27 -9 -10 -8 -25 -15 -31 -15
-7 0 -36 -11 -65 -24 -29 -14 -102 -46 -163 -72 -109 -46 -189 -82 -295 -132
-30 -14 -57 -27 -60 -27 -3 -1 -85 -40 -183 -88 -97 -47 -181 -87 -185 -88 -4
-1 -19 -10 -34 -21 -16 -11 -28 -16 -28 -12 0 3 -6 2 -12 -4 -7 -5 -58 -33
-113 -62 -131 -68 -252 -133 -345 -185 -41 -23 -95 -53 -120 -67 -58 -32 -151
-86 -170 -98 -48 -30 -104 -60 -111 -60 -5 0 -9 -4 -9 -10 0 -5 -6 -10 -14
-10 -8 0 -21 -6 -28 -13 -16 -16 -101 -65 -108 -63 -3 0 -16 -9 -30 -21 -13
-13 -30 -23 -37 -23 -7 0 -13 -4 -13 -9 0 -5 -13 -14 -30 -21 -16 -7 -30 -17
-30 -23 0 -6 -3 -8 -6 -4 -4 3 -21 -5 -39 -18 -17 -14 -37 -25 -43 -25 -6 0
-12 -4 -14 -8 -1 -4 -34 -27 -73 -51 -38 -24 -71 -48 -73 -53 -2 -4 -8 -8 -13
-8 -6 0 -38 -19 -72 -42 -34 -24 -69 -47 -78 -53 -46 -28 -134 -91 -137 -97
-2 -5 -8 -8 -13 -8 -6 0 -15 -4 -22 -10 -30 -25 -108 -80 -112 -80 -3 0 -13
-7 -22 -15 -10 -8 -49 -37 -88 -65 -38 -28 -78 -57 -88 -65 -9 -8 -20 -15 -22
-15 -3 0 -29 -18 -58 -40 -29 -22 -56 -44 -62 -48 -5 -4 -39 -30 -75 -57 -36
-27 -67 -52 -70 -55 -3 -3 -21 -17 -40 -30 -19 -13 -37 -27 -40 -30 -3 -3 -36
-30 -75 -60 -90 -71 -84 -66 -196 -157 -161 -132 -180 -147 -203 -168 -12 -11
-48 -42 -80 -70 -85 -73 -89 -76 -156 -136 -100 -87 -180 -161 -233 -211 -27
-27 -51 -48 -53 -48 -13 0 -594 -578 -594 -592 0 -5 -4 -6 -10 -3 -5 3 -10 3
-10 -2 0 -4 -30 -39 -66 -78 -36 -38 -98 -105 -138 -148 -39 -43 -84 -93 -101
-111 -62 -68 -102 -113 -160 -181 -33 -38 -62 -72 -65 -75 -8 -7 -115 -133
-165 -194 -22 -27 -44 -54 -50 -60 -5 -6 -22 -27 -36 -46 -15 -19 -37 -46 -49
-60 -24 -27 -30 -35 -155 -195 -47 -60 -98 -125 -113 -144 -15 -18 -31 -41
-36 -50 -5 -9 -12 -18 -16 -21 -3 -3 -17 -21 -30 -40 -14 -19 -28 -39 -32 -45
-5 -5 -22 -28 -38 -50 -16 -22 -33 -44 -38 -50 -4 -5 -19 -26 -32 -45 -13 -19
-28 -39 -33 -45 -4 -5 -44 -62 -88 -125 -43 -63 -87 -126 -97 -139 -9 -13 -24
-35 -32 -49 -8 -14 -22 -34 -31 -44 -9 -10 -22 -31 -30 -46 -8 -15 -24 -38
-36 -52 -13 -14 -23 -30 -23 -37 0 -7 -4 -13 -10 -13 -5 0 -10 -6 -10 -13 0
-8 -9 -24 -19 -36 -11 -12 -39 -55 -63 -94 -23 -40 -48 -77 -54 -84 -6 -6 -17
-25 -24 -42 -7 -17 -15 -31 -19 -31 -4 0 -15 -17 -26 -37 -11 -21 -22 -40 -25
-43 -5 -5 -21 -30 -70 -115 -10 -16 -36 -60 -59 -97 -22 -37 -41 -72 -41 -78
0 -5 -3 -10 -8 -10 -4 0 -14 -15 -21 -32 -8 -18 -21 -39 -28 -46 -7 -7 -13
-20 -13 -28 0 -8 -4 -14 -10 -14 -5 0 -10 -5 -10 -10 0 -6 -19 -43 -42 -83
-22 -40 -54 -97 -70 -127 -15 -30 -33 -59 -38 -64 -6 -6 -10 -18 -10 -27 0
-10 -4 -19 -9 -21 -7 -2 -81 -140 -162 -301 l-17 -32 4261 -3 c2344 -1 4264 1
4268 5 3 5 16 51 29 103 12 52 48 203 80 335 64 264 111 458 166 683 42 174
88 365 143 592 22 91 54 224 71 295 17 72 47 195 66 275 48 196 95 392 143
593 23 92 59 242 82 335 22 92 58 239 79 327 62 254 117 482 140 580 12 50 46
191 76 315 30 124 75 308 99 410 25 102 74 307 110 455 36 149 86 353 110 455
25 102 72 295 104 430 33 135 75 310 95 390 19 80 53 222 76 315 23 94 56 233
75 310 19 77 53 217 75 310 58 240 100 416 100 421 0 5 -25 5 -31 0z"/>
<path d="M25021 25742 c-40 -169 -99 -415 -131 -547 -32 -132 -72 -296 -89
-365 -30 -125 -82 -341 -146 -605 -19 -77 -47 -196 -64 -265 -16 -69 -53 -219
-81 -335 -28 -115 -62 -257 -76 -315 -14 -58 -43 -177 -64 -265 -21 -88 -52
-216 -69 -285 -16 -69 -53 -219 -81 -335 -28 -115 -65 -266 -81 -335 -16 -69
-41 -170 -54 -225 -14 -55 -25 -103 -25 -107 0 -5 970 -8 2156 -8 l2155 0 -82
158 c-45 86 -95 180 -111 207 -15 28 -38 70 -50 95 -13 25 -26 47 -30 48 -5 2
-8 9 -8 16 0 8 -9 25 -21 40 -11 14 -17 26 -13 26 4 0 0 8 -8 18 -8 9 -26 37
-39 62 -13 25 -26 47 -29 50 -3 3 -12 19 -20 35 -8 17 -26 48 -41 70 -14 22
-28 45 -30 50 -3 9 -61 105 -147 243 -12 20 -26 46 -31 57 -5 12 -16 27 -25
34 -9 7 -16 17 -16 22 0 5 -22 42 -50 83 -27 41 -50 79 -50 85 0 6 -4 11 -10
11 -5 0 -10 5 -10 11 0 6 -6 17 -12 24 -29 32 -38 45 -33 45 2 0 -2 8 -9 18
-24 29 -166 242 -166 249 0 3 -8 13 -18 22 -9 9 -23 28 -31 44 -8 15 -18 27
-23 27 -4 0 -8 5 -8 10 0 6 -5 16 -10 23 -6 7 -32 42 -58 78 -26 37 -55 77
-65 90 -9 13 -38 53 -64 89 -26 36 -50 67 -53 70 -3 3 -17 21 -30 40 -13 19
-27 37 -30 40 -3 3 -17 21 -30 40 -13 19 -27 37 -30 40 -3 3 -44 55 -91 116
-48 61 -93 119 -102 130 -36 44 -84 103 -117 143 -19 24 -39 48 -45 55 -5 6
-46 54 -90 106 -44 52 -84 100 -90 107 -5 6 -32 37 -60 69 -27 32 -66 75 -86
96 -20 21 -35 38 -32 38 2 0 -11 15 -29 33 -18 19 -57 61 -87 93 -200 221
-534 561 -742 757 -57 54 -125 118 -150 142 -26 25 -50 45 -55 45 -5 0 -42
-139 -83 -308z"/>
<path d="M1220 20915 c-17 -36 -30 -68 -30 -70 0 -3 -8 -24 -19 -48 -10 -23
-28 -65 -40 -94 -11 -28 -26 -64 -33 -80 -6 -15 -12 -30 -13 -33 -5 -16 -19
-49 -32 -79 -8 -18 -16 -39 -17 -45 -1 -6 -10 -29 -20 -51 -10 -22 -19 -44
-20 -50 -2 -5 -8 -23 -15 -40 -6 -16 -23 -61 -37 -100 -14 -38 -35 -95 -47
-125 -12 -30 -22 -62 -24 -70 -1 -8 -7 -23 -12 -35 -19 -35 -219 -649 -236
-724 -3 -9 -27 -95 -55 -191 -43 -148 -149 -551 -164 -623 -3 -12 -8 -33 -11
-47 -3 -14 -8 -36 -11 -50 -3 -13 -14 -63 -25 -110 -11 -47 -22 -94 -25 -105
-12 -59 -26 -132 -29 -150 -2 -11 -4 -20 -5 -20 -1 0 -4 -13 -6 -30 -3 -16
-12 -64 -20 -105 -9 -41 -17 -84 -20 -95 -2 -10 -6 -37 -10 -60 -3 -22 -10
-62 -16 -90 -5 -27 -12 -63 -14 -80 -3 -16 -14 -82 -24 -145 -19 -112 -27
-168 -35 -230 -2 -17 -6 -43 -9 -58 -3 -15 -8 -52 -11 -82 -4 -30 -8 -66 -10
-80 -6 -45 -18 -134 -20 -160 -2 -14 -6 -50 -9 -80 -4 -30 -8 -71 -10 -90 -2
-19 -7 -61 -10 -92 -12 -120 -17 -171 -21 -231 -2 -34 -7 -84 -9 -112 -5 -46
-11 -135 -21 -295 -27 -457 -27 -1338 0 -1740 2 -30 6 -95 9 -145 5 -85 8
-124 21 -270 3 -33 8 -89 10 -125 3 -36 7 -79 10 -96 2 -17 7 -57 10 -90 3
-32 8 -75 10 -94 2 -19 7 -62 11 -95 3 -33 8 -69 10 -80 3 -11 7 -42 9 -70 3
-27 7 -61 10 -75 3 -24 13 -90 20 -140 12 -84 27 -189 31 -213 2 -15 6 -39 9
-55 3 -15 10 -55 15 -89 6 -34 12 -68 15 -75 2 -7 7 -31 9 -53 4 -34 18 -108
80 -415 2 -14 9 -49 15 -78 6 -29 17 -78 25 -110 8 -31 17 -73 20 -92 3 -19
11 -53 17 -75 5 -22 16 -67 24 -100 8 -33 21 -87 30 -120 9 -33 18 -71 21 -84
3 -14 25 -99 50 -190 25 -91 47 -170 48 -176 2 -5 6 -23 10 -40 4 -16 9 -36
12 -43 2 -7 4 -16 5 -20 0 -4 5 -13 11 -19 6 -7 8 -13 4 -13 -3 0 -1 -12 5
-27 6 -16 12 -36 14 -46 6 -29 45 -152 127 -402 44 -132 80 -244 82 -250 1 -5
5 -15 9 -22 4 -7 18 -45 31 -85 13 -40 36 -104 51 -143 15 -38 28 -74 29 -80
1 -5 10 -28 20 -50 10 -22 19 -47 21 -55 2 -8 14 -42 28 -75 13 -33 28 -69 32
-80 5 -11 7 -23 7 -27 -1 -5 2 -8 6 -8 5 0 9 -6 9 -12 0 -7 7 -29 15 -48 9
-19 47 -109 85 -200 l69 -165 2906 -3 c2762 -2 2907 -1 2912 15 3 10 16 65 30
123 14 58 48 200 76 315 28 116 65 266 81 335 17 69 48 197 69 285 21 88 55
225 74 305 19 80 53 219 75 310 22 91 55 230 75 310 32 136 126 525 217 900
22 91 54 221 70 290 17 69 57 235 90 370 64 266 120 497 199 825 51 211 96
396 146 600 46 191 46 170 -3 333 -108 357 -188 680 -212 856 -10 67 -17 87
-48 128 l-37 48 -78 0 c-98 0 -144 21 -188 85 -52 75 -73 169 -87 375 l-5 85
-48 42 c-122 108 -178 307 -131 462 27 90 47 111 105 111 36 0 48 -5 65 -26
19 -24 21 -40 21 -166 0 -98 4 -149 14 -173 8 -19 17 -35 19 -35 2 0 21 25 42
56 40 58 96 103 154 122 49 17 204 15 246 -2 55 -23 105 -66 127 -109 50 -98
-19 -263 -140 -335 -44 -25 -55 -27 -159 -27 -103 0 -112 -2 -117 -20 -11 -41
-5 -83 17 -116 27 -41 55 -46 115 -23 63 24 230 192 352 354 51 69 113 149
138 178 75 90 202 177 352 242 41 18 78 38 82 44 4 6 25 85 47 176 22 91 66
269 96 395 31 127 70 286 86 355 30 125 80 332 144 595 19 77 48 196 64 265
16 69 53 220 81 335 28 116 65 266 81 335 17 69 45 188 64 265 54 225 114 471
145 600 16 66 86 353 155 638 69 285 125 525 125 533 0 12 -601 14 -4350 14
l-4350 0 -30 -65z m4451 -3415 l17 -45 18 33 c11 18 29 35 42 39 34 8 72 -12
72 -39 0 -30 15 -54 24 -39 4 6 23 11 41 11 26 0 39 -6 51 -25 16 -24 15 -29
-5 -83 -13 -31 -27 -75 -31 -97 -5 -22 -18 -71 -29 -109 -11 -38 -18 -73 -15
-78 3 -5 47 -40 97 -78 113 -86 249 -197 259 -213 14 -22 8 -57 -13 -78 -20
-20 -29 -21 -168 -18 l-146 4 -3 -40 c-5 -78 -13 -106 -44 -141 -38 -43 -66
-58 -141 -75 -71 -15 -87 -35 -87 -105 0 -60 22 -137 80 -279 22 -55 73 -206
111 -335 39 -129 77 -246 84 -260 22 -44 34 -120 51 -315 33 -388 -8 -638
-149 -915 -75 -147 -85 -164 -189 -325 -126 -195 -373 -432 -532 -512 -39 -19
-93 -50 -121 -67 -60 -38 -75 -46 -185 -104 -159 -84 -250 -128 -423 -205 -21
-10 -84 -28 -140 -42 -56 -13 -133 -35 -172 -48 l-70 -24 2 -244 2 -244 51
-47 c60 -54 134 -95 240 -133 110 -39 118 -62 35 -102 -50 -25 -55 -30 -55
-59 0 -20 -10 -44 -26 -63 -23 -27 -32 -31 -77 -31 -29 0 -71 7 -93 15 -23 8
-108 21 -188 29 -149 15 -196 29 -196 61 0 9 13 39 30 68 54 96 60 142 57 457
-2 157 -7 291 -11 299 -20 32 -283 122 -296 101 -4 -6 -18 -93 -31 -193 -19
-142 -24 -228 -24 -389 0 -243 -1 -241 110 -299 38 -21 75 -45 82 -55 13 -17
10 -60 -4 -74 -2 -3 -46 -8 -96 -12 -51 -4 -115 -10 -143 -14 -37 -4 -60 -1
-82 10 -17 9 -40 16 -51 16 -11 0 -34 14 -51 30 -22 22 -40 30 -66 30 -65 0
-59 44 19 143 l54 67 8 103 c4 56 13 156 21 222 21 178 28 400 15 469 l-11 59
-304 301 c-300 298 -414 427 -534 605 -65 98 -153 267 -178 344 -9 28 -41 106
-72 172 -99 215 -138 335 -252 760 -32 122 -70 371 -70 462 0 36 6 67 15 80
19 27 63 37 99 23 27 -10 27 -9 23 17 -14 71 -29 282 -23 306 7 30 58 61 88
54 18 -5 19 1 16 165 -3 168 -3 170 21 189 53 43 125 16 148 -56 9 -27 11 -23
18 45 9 89 55 279 81 335 33 69 110 83 153 29 23 -29 25 -27 57 65 10 29 30
62 43 72 34 27 86 25 117 -6 25 -25 26 -30 22 -130 -1 -57 -1 -101 2 -97 3 4
23 33 44 65 48 72 79 97 120 97 70 0 101 -61 74 -144 l-15 -44 29 10 c35 12
72 4 98 -22 18 -18 20 -34 20 -170 0 -125 3 -157 20 -199 33 -85 70 -314 81
-501 8 -142 14 -183 31 -218 38 -81 252 -242 432 -328 103 -49 208 -71 376
-80 95 -6 122 -3 275 29 94 20 191 44 217 54 110 43 194 130 259 269 21 45 74
204 118 355 92 317 109 367 152 454 42 86 150 218 225 274 33 25 72 55 87 66
20 15 27 30 29 64 2 43 0 46 -42 76 -76 53 -114 150 -74 189 9 9 32 16 54 16
l39 0 -15 28 c-23 44 -27 90 -14 138 16 54 47 79 90 70 29 -5 30 -3 41 40 17
68 56 87 122 59 11 -5 17 -3 17 6 0 29 33 50 74 47 38 -3 42 -6 57 -48z"/>
<path d="M10742 20933 c-14 -58 -132 -541 -162 -668 -25 -103 -82 -340 -139
-577 -22 -90 -53 -219 -70 -288 -30 -126 -111 -459 -291 -1205 -23 -93 -57
-235 -76 -315 -19 -80 -53 -217 -74 -305 -21 -88 -52 -216 -69 -285 -16 -69
-53 -219 -81 -334 -28 -115 -49 -212 -48 -216 2 -4 73 11 158 31 770 188 1026
229 1355 216 374 -15 541 -52 2040 -447 1549 -408 2046 -533 2276 -571 66 -11
82 -10 120 4 24 8 69 25 99 35 30 11 154 39 275 61 121 23 272 53 335 66 63
14 133 25 156 25 50 0 104 -18 104 -34 0 -7 -29 -38 -64 -69 -80 -71 -194
-244 -173 -264 7 -7 100 -26 207 -43 206 -32 428 -75 437 -84 17 -17 -17 -38
-109 -67 -156 -48 -355 -127 -388 -156 -28 -23 -30 -30 -30 -91 0 -179 84
-482 196 -707 88 -179 134 -232 285 -335 161 -110 349 -291 349 -335 -1 -25
-38 -72 -204 -255 l-203 -225 -49 1 c-27 1 -146 9 -264 19 -118 9 -411 20
-650 25 -239 5 -511 14 -605 20 -206 15 -365 8 -516 -20 -256 -49 -375 -173
-450 -465 -29 -113 -30 -128 -26 -270 5 -173 11 -197 120 -432 37 -78 73 -158
81 -178 9 -21 37 -69 63 -107 51 -77 50 -100 -2 -106 -54 -7 -95 9 -146 53
-71 64 -87 59 -111 -29 -9 -35 -19 -51 -36 -57 -60 -23 -131 0 -150 48 -6 15
-16 57 -22 93 -26 150 -106 410 -268 870 -17 47 -51 153 -77 235 -43 136 -106
295 -119 295 -7 0 -53 -145 -70 -220 -44 -190 -40 -302 20 -544 52 -213 124
-590 124 -652 0 -47 -2 -54 -20 -54 -11 0 -51 30 -90 66 -38 36 -75 64 -82 62
-6 -2 -24 -26 -38 -54 -29 -54 -55 -64 -121 -47 -30 8 -33 13 -45 68 -6 33
-24 96 -39 140 -15 44 -33 125 -41 180 -8 55 -25 145 -38 200 -14 55 -28 123
-31 150 -8 55 -59 268 -75 311 -6 15 -26 79 -45 143 -19 64 -57 172 -84 241
-46 113 -53 125 -73 122 -13 -2 -93 -21 -179 -42 -664 -166 -1053 -172 -1644
-24 -77 20 -248 66 -380 104 -132 37 -267 73 -299 80 -68 14 -169 6 -203 -15
-45 -30 -231 -371 -283 -520 -25 -72 -65 -297 -81 -455 -19 -192 1 -321 72
-461 21 -43 39 -92 39 -109 0 -27 -3 -30 -32 -30 -28 -1 -42 9 -85 57 -44 49
-55 56 -70 47 -12 -7 -20 -29 -24 -62 -4 -27 -10 -55 -13 -61 -4 -6 -38 -11
-81 -11 -69 0 -77 2 -109 31 -20 17 -49 58 -66 92 -51 105 -61 179 -64 496 -3
269 -5 293 -29 395 -29 121 -47 154 -47 90 0 -94 -47 -270 -123 -459 -107
-267 -106 -262 -67 -374 36 -105 34 -146 -7 -162 -55 -20 -72 -12 -157 76 -77
81 -98 94 -121 77 -22 -16 -77 -94 -87 -125 -16 -48 -27 -57 -65 -57 -51 0
-63 37 -64 202 l-1 133 -54 -220 c-30 -121 -74 -303 -99 -405 -24 -102 -74
-306 -110 -455 -36 -148 -85 -353 -110 -455 -24 -102 -69 -286 -99 -410 -30
-124 -64 -265 -76 -315 -12 -49 -41 -171 -65 -270 -24 -99 -60 -245 -79 -325
-81 -336 -118 -490 -136 -564 -11 -43 -20 -83 -20 -87 0 -5 2714 -9 6159 -9
l6159 0 22 93 c12 50 43 182 70 292 27 110 64 265 84 345 19 80 53 222 76 315
23 94 57 235 76 315 19 80 53 217 74 305 21 88 55 225 74 305 19 80 53 222 76
315 22 94 54 226 71 295 58 240 130 537 189 780 121 500 162 669 201 835 l41
170 -56 110 c-31 60 -73 161 -95 222 -44 129 -131 293 -174 329 -44 37 -73 31
-129 -26 -74 -77 -218 -388 -291 -631 -78 -258 -97 -417 -102 -867 -2 -159 -8
-282 -15 -312 -14 -60 -44 -87 -103 -94 -23 -3 -148 -20 -277 -37 -380 -50
-499 -51 -546 -4 -54 54 -13 168 112 307 41 46 111 124 157 175 171 189 245
375 281 698 10 83 35 281 58 440 28 200 40 327 41 410 0 113 -2 128 -42 259
-88 291 -196 462 -521 821 -203 224 -265 300 -339 410 -85 130 -235 447 -317
673 -45 125 -77 196 -109 243 -52 77 -288 310 -390 387 -89 66 -228 135 -325
161 -130 35 -241 41 -795 45 -579 4 -620 7 -703 58 -43 26 -53 47 -98 208 -35
121 -39 147 -39 250 0 113 1 117 43 220 40 97 90 197 266 531 37 70 84 171
106 224 41 101 62 134 142 223 42 45 48 58 48 96 0 71 -46 184 -141 348 -41
70 -49 115 -24 124 22 9 106 -21 210 -73 147 -74 145 -73 297 -57 154 16 384
18 478 4 161 -25 133 -34 239 82 72 79 106 108 145 125 98 42 165 22 229 -69
94 -133 93 -131 161 -334 3 -7 32 -5 93 7 125 26 344 25 494 -1 100 -17 129
-27 238 -82 145 -73 243 -136 323 -206 55 -48 58 -50 105 -44 112 12 340 95
439 159 79 51 193 103 269 122 22 6 67 27 100 47 116 71 87 67 760 90 l180 6
159 -51 c87 -29 209 -60 272 -71 105 -18 467 -60 517 -60 21 0 26 12 61 158
21 86 66 274 101 417 34 143 83 346 109 450 25 105 71 294 101 420 73 299 121
502 130 543 l7 32 -6159 0 -6159 0 -12 -47z"/>
<path d="M23864 20953 c-4 -16 -17 -71 -30 -123 -13 -52 -55 -228 -94 -390
-85 -352 -114 -474 -185 -765 -29 -121 -70 -290 -90 -375 -21 -85 -54 -222
-75 -305 -20 -82 -36 -152 -34 -153 5 -6 598 18 824 33 569 39 1010 94 1210
152 108 31 210 77 379 170 409 227 541 270 795 260 83 -3 166 -12 201 -22 84
-23 251 -107 337 -169 40 -30 110 -72 155 -94 122 -62 243 -135 306 -187 65
-52 231 -255 299 -365 49 -78 71 -132 138 -328 21 -64 58 -162 81 -217 197
-476 231 -572 290 -815 17 -69 44 -172 60 -229 45 -160 53 -301 54 -881 1
-509 2 -516 24 -572 12 -32 36 -106 53 -165 28 -99 31 -124 35 -304 3 -131 1
-215 -7 -253 -30 -144 -159 -182 -261 -76 -74 76 -77 94 -79 470 -1 179 1 429
5 555 9 264 -8 753 -31 915 -19 131 -51 282 -119 565 -75 311 -229 716 -330
870 -15 22 -24 32 -21 22 48 -153 65 -314 72 -677 10 -445 -21 -1123 -67
-1499 -42 -350 -47 -608 -12 -741 20 -79 93 -257 185 -454 110 -237 112 -247
112 -616 0 -332 -21 -687 -55 -925 -27 -185 -35 -377 -20 -442 9 -38 23 -61
57 -94 61 -59 84 -106 84 -171 0 -106 -33 -168 -110 -208 -69 -36 -104 -94
-148 -247 -28 -96 -29 -98 -66 -110 -23 -8 -132 -15 -285 -20 -241 -6 -249 -6
-293 16 -51 24 -68 53 -68 114 0 55 35 107 89 132 34 15 49 32 87 99 25 45 64
109 86 143 99 154 176 397 185 584 5 105 3 127 -25 245 -16 71 -42 185 -57
254 -15 69 -40 159 -56 200 -60 149 -183 324 -268 380 -76 51 -116 39 -160
-48 -53 -107 -130 -309 -149 -393 -56 -244 -155 -600 -217 -779 -62 -180 -205
-454 -331 -635 -38 -55 -86 -127 -106 -160 -44 -72 -74 -103 -116 -114 -17 -5
-143 -13 -279 -17 l-248 -7 -32 27 c-39 33 -51 88 -30 137 8 19 51 68 96 108
45 41 113 116 149 167 152 210 302 402 347 444 173 160 173 158 187 525 21
508 -17 761 -139 929 -47 63 -133 156 -146 156 -5 0 -39 -22 -76 -48 -36 -26
-86 -60 -111 -76 l-45 -28 3 -144 3 -145 -30 -29 c-25 -25 -37 -30 -78 -30
-73 0 -100 32 -113 133 -5 42 -12 88 -16 102 -9 37 -37 28 -45 -15 -10 -48
-59 -90 -105 -90 -47 0 -96 24 -115 56 l-16 27 -249 -2 c-155 -1 -269 2 -302
9 -52 12 -53 11 -81 -19 -15 -16 -40 -33 -55 -37 -71 -18 -146 34 -146 101 0
54 -17 50 -25 -6 -14 -99 -104 -156 -183 -115 -51 27 -66 66 -59 166 l5 85
-56 33 c-102 59 -213 156 -260 226 -24 36 -49 66 -55 66 -5 0 -103 11 -216 25
-432 52 -601 66 -841 71 -135 3 -272 2 -305 -3 l-60 -8 -41 -165 c-23 -91 -60
-241 -82 -335 -23 -93 -62 -253 -86 -355 -25 -102 -66 -270 -91 -375 -91 -379
-136 -564 -191 -790 -49 -198 -58 -250 -65 -373 -12 -214 -32 -293 -86 -337
-25 -21 -29 -35 -283 -1085 -109 -454 -144 -597 -175 -725 -19 -77 -48 -196
-64 -265 -16 -69 -57 -235 -89 -370 -33 -135 -72 -297 -87 -360 -15 -63 -33
-137 -41 -164 -8 -27 -14 -58 -14 -68 0 -17 136 -18 3875 -18 l3875 0 20 40
c11 22 18 40 14 40 -4 0 -2 6 4 13 10 12 107 243 168 402 19 50 41 103 49 120
7 16 11 33 9 37 -3 4 0 8 5 8 6 0 11 6 11 13 0 6 19 62 41 122 42 112 167 468
174 495 3 8 34 110 71 225 36 116 76 246 89 290 43 149 87 310 91 335 3 14 9
36 14 50 9 26 25 86 34 130 3 14 17 72 31 130 15 58 28 112 30 120 2 8 9 38
15 65 6 28 14 59 16 70 2 11 6 31 9 45 4 14 8 34 10 45 3 11 7 31 11 45 3 14
7 34 9 45 2 11 20 99 39 195 39 195 47 236 51 265 2 11 8 47 14 80 6 33 13 74
16 90 2 17 7 39 9 50 4 24 18 111 21 142 2 13 6 42 10 65 8 50 12 77 19 133 3
22 11 74 16 115 6 41 13 93 16 115 2 22 6 56 8 75 2 19 7 62 11 95 3 33 8 74
10 90 2 17 7 62 11 100 3 39 8 84 10 100 1 17 6 68 9 115 4 47 8 101 10 120 2
19 6 80 10 135 3 55 8 125 10 155 27 364 27 1344 0 1745 -2 33 -7 101 -11 150
-3 50 -7 113 -9 140 -2 28 -6 79 -9 115 -4 36 -8 92 -11 125 -5 65 -14 145
-20 185 -2 14 -7 54 -10 90 -4 36 -8 76 -10 90 -2 14 -6 50 -9 80 -4 30 -9 66
-11 80 -2 14 -6 48 -10 75 -12 97 -15 119 -19 144 -8 49 -17 106 -21 136 -2
17 -9 57 -14 90 -5 33 -13 80 -16 105 -3 25 -10 61 -15 80 -5 19 -16 78 -24
130 -22 132 -26 153 -31 170 -2 8 -7 29 -10 45 -2 17 -7 41 -10 55 -15 67 -27
128 -31 155 -3 17 -9 44 -14 60 -5 17 -12 46 -15 65 -3 19 -20 91 -36 160 -17
69 -32 134 -34 145 -1 11 -3 20 -4 20 -2 0 -4 7 -6 15 -6 32 -58 237 -70 280
-7 25 -21 74 -30 110 -10 36 -20 72 -23 80 -3 8 -7 23 -9 33 -1 10 -12 46 -22
80 -17 54 -51 167 -57 190 -1 4 -3 9 -4 12 -1 3 -3 8 -4 13 -17 69 -157 495
-168 510 -6 6 -8 12 -4 12 3 0 -1 17 -9 38 -7 20 -30 80 -49 132 -50 139 -104
285 -117 317 -15 38 -21 53 -64 163 -20 52 -43 109 -50 125 -7 17 -21 48 -30
70 -9 22 -35 85 -59 140 l-43 100 -2431 3 -2432 2 -6 -27z"/>
<path d="M7933 16070 c-36 -21 -41 -30 -19 -30 17 0 77 49 61 50 -5 0 -25 -9
-42 -20z"/>
<path d="M1679 8098 c100 -194 140 -268 221 -413 9 -16 32 -57 50 -90 18 -33
38 -67 45 -75 6 -8 17 -30 25 -47 7 -18 16 -33 20 -33 4 0 10 -8 13 -17 6 -18
22 -45 96 -168 23 -37 41 -71 41 -76 0 -5 5 -9 10 -9 6 0 10 -7 10 -15 0 -8 5
-15 10 -15 6 0 10 -5 10 -11 0 -6 14 -30 30 -54 17 -24 30 -48 30 -54 0 -6 5
-11 10 -11 6 0 10 -5 10 -10 0 -6 8 -23 19 -38 10 -15 90 -135 177 -267 86
-132 166 -248 176 -258 10 -10 18 -22 18 -28 0 -6 6 -17 13 -24 21 -25 32 -38
77 -105 25 -36 48 -66 53 -68 4 -2 7 -10 7 -18 0 -8 3 -14 8 -14 4 0 21 -21
37 -45 17 -25 33 -45 38 -45 4 0 7 -5 7 -11 0 -5 25 -41 55 -79 30 -38 55 -73
55 -79 0 -5 3 -11 8 -13 4 -1 32 -34 62 -73 30 -38 58 -71 62 -73 5 -2 8 -10
8 -17 0 -7 4 -15 8 -17 4 -1 23 -23 42 -48 19 -25 43 -52 53 -61 9 -9 17 -21
17 -27 0 -6 4 -12 8 -14 4 -1 23 -23 42 -47 19 -25 42 -52 50 -61 8 -9 31 -36
52 -61 20 -24 46 -55 57 -69 12 -14 34 -40 49 -58 15 -18 38 -46 52 -61 14
-16 45 -52 70 -81 25 -29 61 -69 80 -90 19 -21 55 -61 79 -89 24 -28 61 -69
82 -90 22 -21 39 -40 39 -43 0 -14 556 -577 730 -738 56 -52 128 -120 160
-150 32 -30 82 -75 111 -100 28 -25 61 -54 73 -65 13 -11 53 -47 91 -80 37
-33 79 -70 93 -83 14 -12 38 -33 54 -45 16 -12 53 -43 81 -69 29 -26 55 -48
59 -48 4 0 15 -8 25 -18 10 -10 43 -38 73 -62 30 -25 57 -47 60 -50 3 -3 24
-20 47 -38 37 -29 42 -30 47 -15 2 10 16 65 30 123 14 58 45 188 70 290 24
102 56 232 70 290 14 58 50 209 81 335 30 127 76 313 100 415 25 102 72 295
104 430 94 386 117 484 160 660 59 245 177 733 222 918 21 89 57 237 80 330
67 277 108 450 144 597 114 469 135 558 135 566 0 5 -1126 9 -2630 9 l-2630 0
69 -132z"/>
<path d="M7666 8213 c-2 -10 -11 -47 -20 -83 -8 -36 -41 -168 -71 -295 -31
-126 -67 -277 -81 -335 -46 -193 -92 -383 -134 -555 -23 -93 -59 -244 -81
-335 -22 -91 -56 -230 -75 -310 -41 -169 -87 -358 -143 -592 -23 -93 -59 -243
-82 -335 -62 -256 -101 -421 -179 -743 -67 -277 -104 -431 -185 -765 -19 -77
-50 -207 -70 -290 -20 -82 -56 -231 -80 -330 -24 -99 -60 -249 -80 -333 -20
-84 -35 -158 -32 -166 5 -13 22 -25 145 -108 26 -18 49 -36 50 -40 2 -4 10 -8
18 -8 8 0 14 -4 14 -10 0 -5 4 -10 10 -10 11 0 103 -62 108 -72 2 -5 7 -8 12
-8 4 0 48 -26 97 -58 159 -105 198 -130 207 -130 5 0 12 -4 15 -9 8 -11 53
-40 66 -42 6 -1 19 -10 30 -20 11 -10 40 -29 65 -42 25 -13 47 -27 50 -30 3
-3 12 -9 20 -12 8 -4 27 -15 42 -25 29 -19 119 -71 187 -110 25 -14 67 -38 93
-53 27 -16 53 -29 58 -29 6 0 10 -4 10 -9 0 -5 12 -14 28 -20 33 -13 117 -59
152 -84 13 -9 32 -17 42 -17 10 0 18 -4 18 -9 0 -5 10 -13 23 -17 12 -4 24 -9
27 -13 3 -3 64 -35 135 -71 72 -35 138 -71 148 -79 9 -8 17 -11 17 -6 0 4 6 3
13 -3 21 -18 109 -62 123 -62 8 0 14 -4 14 -10 0 -5 6 -10 13 -10 8 0 54 -20
103 -44 90 -45 198 -95 289 -136 28 -13 83 -38 123 -56 41 -19 75 -34 78 -34
2 0 23 -9 47 -19 23 -11 76 -34 117 -51 41 -17 89 -37 105 -44 17 -7 62 -26
100 -41 39 -15 96 -39 129 -52 32 -14 63 -26 70 -28 10 -2 50 -17 86 -32 8 -3
17 -7 20 -8 3 -1 12 -4 20 -8 32 -13 215 -79 225 -82 5 -1 24 -7 40 -14 17 -7
89 -33 160 -57 141 -49 137 -47 180 -59 17 -4 36 -13 44 -19 8 -6 16 -10 18
-8 1 1 4 2 6 1 1 0 9 -2 17 -4 8 -2 60 -18 115 -35 98 -31 215 -67 245 -75 8
-2 38 -11 65 -19 59 -17 233 -66 255 -71 8 -2 47 -13 86 -24 39 -11 85 -23
104 -26 18 -3 41 -10 51 -16 11 -5 19 -8 19 -5 0 3 21 -1 48 -9 26 -8 58 -16
72 -19 14 -3 52 -12 86 -20 34 -8 72 -17 85 -20 13 -3 53 -12 89 -21 36 -9 74
-18 85 -20 16 -2 147 -29 190 -39 6 -2 28 -6 50 -10 22 -4 94 -18 160 -31 143
-27 195 -37 215 -40 30 -5 96 -16 120 -21 14 -2 43 -7 65 -10 22 -3 51 -7 65
-10 33 -6 151 -24 225 -34 33 -5 69 -11 80 -13 11 -3 56 -8 100 -12 44 -4 82
-8 85 -10 3 -2 34 -6 70 -9 36 -4 76 -8 90 -11 14 -2 54 -7 90 -9 36 -3 76 -8
90 -10 14 -3 59 -7 102 -10 42 -3 91 -8 110 -11 18 -2 71 -7 117 -9 46 -3 120
-8 165 -11 286 -22 567 -30 1016 -30 388 0 666 7 860 20 25 1 92 6 150 9 58 4
132 9 165 12 33 3 83 7 110 9 76 6 164 14 225 21 30 3 71 8 90 10 65 6 135 14
175 19 85 10 122 15 170 20 28 3 62 8 77 11 15 3 41 7 58 9 59 8 115 16 170
25 30 5 75 12 100 16 25 3 54 8 65 10 67 10 106 16 150 24 28 6 113 22 190 36
77 14 149 28 160 30 49 10 139 28 148 30 4 1 11 2 16 3 9 1 20 44 235 934 20
81 52 211 70 290 19 78 51 208 70 290 43 178 88 364 165 682 32 132 78 319
101 415 23 96 69 285 101 420 33 135 80 328 104 430 25 102 72 295 104 430
116 477 126 521 246 1015 19 77 66 273 105 435 39 162 87 359 106 438 85 351
105 436 138 572 19 80 53 220 75 313 23 92 59 242 82 335 45 188 89 371 154
642 25 102 49 201 55 221 5 20 10 39 10 43 0 3 -2772 6 -6159 6 -5858 0 -6160
-1 -6165 -17z m5679 -913 c138 -35 246 -119 309 -239 71 -136 69 -114 73 -921
4 -687 -1 -869 -25 -891 -4 -4 -65 -1 -137 7 -71 8 -159 17 -194 21 l-63 6 8
51 c5 28 9 371 9 761 0 664 -1 713 -18 757 -21 55 -53 83 -110 99 -89 24 -171
-14 -208 -96 -17 -38 -19 -84 -19 -784 l0 -744 -87 7 c-91 7 -251 24 -290 32
l-23 4 0 736 c0 810 0 811 63 944 57 121 184 220 325 254 90 22 293 20 387 -4z
m-2805 -49 c0 -22 -11 -145 -25 -273 -14 -128 -25 -234 -25 -236 0 -1 48 -1
107 0 l107 3 17 160 c10 88 23 211 29 273 l12 112 159 0 159 0 0 -27 c0 -16
-11 -133 -25 -261 -14 -128 -25 -240 -25 -248 0 -11 18 -14 85 -14 61 0 85 -3
85 -12 0 -7 -7 -71 -15 -143 -8 -71 -15 -131 -15 -132 0 -2 -38 -3 -85 -3 -80
0 -85 -1 -89 -22 -6 -29 -56 -525 -56 -555 0 -22 4 -23 85 -23 l86 0 -6 -47
c-3 -27 -10 -86 -15 -133 -6 -46 -10 -90 -10 -97 0 -10 -25 -13 -99 -13 -99 0
-183 8 -596 55 -121 14 -263 30 -315 35 -52 6 -114 13 -138 16 l-43 5 6 57 c3
31 8 72 11 90 l5 32 82 0 82 0 28 283 c16 155 31 290 33 300 5 15 -4 17 -80
17 -100 0 -91 -15 -76 142 17 162 7 148 104 148 l83 0 22 208 c12 114 24 237
28 275 l6 67 158 0 159 0 0 -39z m1910 -146 l0 -185 -195 0 -195 0 0 -746 0
-746 -72 7 c-40 3 -125 13 -188 21 -63 8 -120 14 -127 14 -11 0 -13 139 -13
725 l0 725 -195 0 -195 0 0 185 0 185 590 0 590 0 0 -185z m2570 0 l0 -185
-195 0 -195 0 0 -891 0 -892 -72 7 c-101 9 -246 27 -288 35 l-35 7 -3 867 -2
867 -195 0 -195 0 0 185 0 185 590 0 590 0 0 -185z m825 163 c5 -22 375 -2297
375 -2306 0 -3 -28 -2 -62 1 -224 23 -332 37 -339 44 -4 4 -18 82 -31 173
l-23 165 -203 3 c-158 2 -202 0 -202 -10 -1 -27 -39 -270 -43 -274 -4 -4 -71
1 -279 25 -37 4 -71 10 -75 14 -5 6 321 2062 344 2165 l5 22 264 0 264 0 5
-22z m945 -998 l0 -1020 305 0 305 0 0 -185 0 -185 -253 0 c-191 0 -300 5
-438 21 -101 11 -213 23 -249 27 l-65 7 -3 1178 -2 1177 200 0 200 0 0 -1020z
m-6715 -1070 c39 -5 117 -14 175 -21 58 -6 113 -13 123 -15 16 -5 17 -79 17
-1365 l0 -1359 -250 0 -250 0 0 1391 0 1390 58 -6 c31 -3 89 -10 127 -15z
m935 -106 c74 -8 167 -19 205 -24 39 -6 107 -13 153 -16 46 -4 89 -12 95 -19
7 -6 84 -294 172 -638 l160 -626 3 616 2 616 58 -6 c187 -19 359 -38 375 -43
16 -5 17 -74 17 -1260 l0 -1254 -257 0 -258 0 -275 1061 -275 1060 -3 -1060
-2 -1061 -225 0 -225 0 0 1341 0 1342 73 -7 c39 -4 133 -13 207 -22z m1760
-199 c74 -9 159 -18 188 -22 l52 -6 0 -51 c0 -75 24 -176 58 -242 60 -120 148
-219 377 -429 334 -306 459 -507 494 -790 52 -426 -77 -752 -349 -883 -125
-60 -216 -75 -414 -70 -139 4 -172 9 -242 31 -139 46 -251 133 -323 251 -78
130 -111 284 -111 524 l0 152 240 0 240 0 0 -148 c0 -166 13 -230 57 -283 72
-86 248 -94 331 -16 86 79 103 296 37 460 -55 137 -110 201 -490 567 -208 200
-325 376 -376 565 -21 82 -39 364 -25 401 5 14 15 16 64 10 31 -3 118 -13 192
-21z m975 -109 c212 -24 195 -16 195 -92 l0 -64 -237 2 -238 3 -3 89 -3 89 73
-6 c40 -3 136 -13 213 -21z m798 -91 c128 -14 241 -29 253 -34 16 -7 28 -36
54 -127 l34 -118 18 64 c11 36 27 88 36 115 21 58 -8 55 257 25 99 -11 183
-20 188 -20 16 0 1 -54 -133 -455 l-140 -420 0 -642 0 -643 -250 0 -250 0 0
649 0 650 -155 469 c-142 431 -166 512 -149 512 3 0 110 -11 237 -25z m1455
-164 c37 -5 114 -15 172 -21 58 -6 117 -14 133 -16 l27 -6 0 -1024 0 -1024
-225 0 -225 0 0 1043 c0 574 3 1047 7 1050 9 9 32 9 111 -2z m582 -67 c80 -8
158 -18 174 -22 l29 -8 86 -337 86 -337 3 331 2 330 58 -6 c31 -3 89 -10 127
-15 39 -5 102 -12 140 -15 39 -4 82 -9 98 -11 l27 -6 0 -964 0 -964 -259 0
-259 0 -10 43 c-6 23 -124 476 -262 1007 -137 531 -250 973 -250 984 0 16 5
17 33 12 17 -4 97 -13 177 -22z"/>
<path d="M10460 6447 c0 -2 -13 -131 -30 -288 -16 -156 -30 -290 -30 -296 0
-10 28 -13 105 -13 l104 0 5 33 c8 44 56 518 56 545 0 21 -4 22 -105 22 -58 0
-105 -1 -105 -3z"/>
<path d="M15556 6740 c-3 -14 -35 -241 -71 -505 -36 -264 -68 -492 -71 -507
l-6 -28 151 0 c150 0 151 0 151 23 -2 64 -148 1039 -154 1017z"/>
<path d="M20787 8223 c-3 -5 -8 -24 -12 -43 -4 -19 -33 -143 -65 -275 -32
-132 -72 -296 -89 -365 -48 -198 -108 -446 -151 -625 -104 -428 -123 -509
-155 -640 -19 -77 -48 -198 -65 -270 -36 -149 -75 -313 -164 -680 -35 -143
-82 -336 -104 -430 -23 -93 -67 -273 -97 -400 -31 -126 -70 -286 -86 -355 -38
-158 -61 -254 -219 -905 -23 -93 -59 -244 -81 -335 -22 -91 -55 -228 -74 -305
-19 -77 -66 -273 -105 -435 -39 -162 -87 -360 -106 -440 -19 -80 -51 -210 -70
-290 -19 -80 -55 -228 -80 -330 -24 -102 -65 -270 -90 -373 -26 -104 -44 -190
-41 -193 3 -3 31 2 63 11 33 9 66 18 74 20 8 2 47 13 85 25 39 12 77 23 85 25
125 33 759 241 880 290 19 7 78 30 130 49 52 19 109 41 125 47 17 7 32 13 35
13 17 4 294 116 387 157 24 11 45 19 47 19 3 0 34 14 69 30 36 17 68 30 70 30
3 0 53 23 112 50 59 28 109 50 113 50 21 0 909 444 922 461 3 3 16 10 30 14
14 4 27 11 30 15 3 4 33 22 68 40 34 17 65 36 68 41 3 5 10 7 15 4 5 -4 9 -2
9 3 0 6 12 15 28 21 15 6 45 21 67 34 194 116 247 147 250 147 2 0 30 17 62
38 32 20 67 42 78 49 85 50 217 134 365 232 96 64 180 118 185 120 6 2 12 7
15 11 3 3 32 24 65 45 33 22 65 43 70 47 35 27 107 77 145 103 25 17 50 35 56
40 7 6 25 19 40 30 16 11 68 49 116 85 48 36 97 72 109 80 12 8 57 43 101 77
43 35 83 63 88 63 5 0 13 6 17 13 4 7 51 46 103 87 52 41 100 79 107 85 7 5
18 15 25 20 7 6 40 32 73 60 33 27 65 54 71 59 7 5 25 20 42 35 17 14 49 42
72 61 75 63 94 79 150 129 30 27 100 89 155 137 55 49 109 98 121 109 12 11
69 65 128 120 147 138 520 510 641 640 138 147 274 297 322 351 10 12 41 47
68 79 28 32 55 63 60 69 6 6 39 45 73 86 35 41 74 86 86 100 12 14 40 48 62
75 21 28 45 57 52 65 7 8 20 25 30 36 57 71 76 95 121 154 28 36 57 72 64 80
45 50 392 525 507 695 19 28 38 55 42 60 5 6 32 46 60 90 29 44 56 85 61 90 6
8 111 172 154 241 7 10 37 58 68 107 30 48 55 92 55 97 0 6 5 10 10 10 6 0 10
7 10 15 0 8 3 15 8 15 4 0 12 10 18 23 6 12 50 88 97 169 48 81 87 150 87 153
0 3 12 24 27 48 15 23 32 51 39 62 101 184 192 355 221 415 15 30 31 58 36 61
5 3 8 9 8 13 -1 3 6 20 14 36 l16 30 -3790 0 c-2084 0 -3792 -3 -3794 -7z"/>
</g>
</svg>
